<?xml version="1.0" standalone="no"?>
<!DOCTYPE svg PUBLIC "-//W3C//DTD SVG 20010904//EN"
 "http://www.w3.org/TR/2001/REC-SVG-20010904/DTD/svg10.dtd">
<svg version="1.0" xmlns="http://www.w3.org/2000/svg"
 width="250.000000pt" height="250.000000pt" viewBox="0 0 250.000000 250.000000"
 preserveAspectRatio="xMidYMid meet">
<metadata>
Created by potrace 1.11, written by Peter Selinger 2001-2013
</metadata>
<g transform="translate(0.000000,250.000000) scale(0.100000,-0.100000)"
fill="#000000" stroke="none">
<path d="M1207 2451 c-51 -51 -141 -95 -262 -127 -127 -34 -201 -71 -263 -133
-86 -86 -126 -207 -91 -272 10 -19 9 -20 -18 -6 -81 42 -181 24 -260 -47 -65
-59 -98 -122 -132 -259 -43 -166 -84 -259 -144 -324 l-29 -31 36 -38 c62 -63
105 -155 137 -288 36 -148 127 -273 236 -323 57 -26 128 -32 163 -13 18 10 21
10 14 -2 -32 -50 -37 -138 -10 -201 21 -51 93 -125 148 -153 40 -20 187 -65
257 -79 55 -10 185 -77 232 -119 l31 -28 42 39 c22 22 57 49 76 61 34 20 169
68 217 77 202 36 374 239 328 385 -8 24 -7 24 36 6 44 -18 128 -12 176 13 96
49 171 169 197 314 19 106 78 242 134 308 l34 40 -40 41 c-50 50 -94 138 -122
243 -42 159 -68 212 -139 283 -86 87 -205 127 -272 92 -20 -11 -20 -11 -3 22
25 47 23 142 -3 193 -51 98 -134 150 -320 199 -152 41 -230 74 -295 128 -26
21 -48 38 -50 37 -2 0 -20 -17 -41 -38z"/>
</g>
</svg>
